<?xml version="1.0" encoding="UTF-8"?>
<svg version="1.1" xmlns="http://www.w3.org/2000/svg" width="851" height="468">
<path d="M0 0 C1.32 0.66 2.64 1.32 4 2 C3.07068642 13.27281579 2.13226207 24.54484116 1.18353271 35.81604004 C1.01953057 37.76759463 0.85661562 39.71924052 0.69384766 41.67089844 C-0.1604187 51.85674098 -1.00903945 61.96047554 -3 72 C-6.42530237 73.14176746 -7.31673674 72.83108216 -10.66796875 71.78515625 C-12.00698242 71.37426758 -12.00698242 71.37426758 -13.37304688 70.95507812 C-14.30181641 70.66052734 -15.23058594 70.36597656 -16.1875 70.0625 C-17.59805664 69.62647461 -17.59805664 69.62647461 -19.03710938 69.18164062 C-21.36049886 68.46221545 -23.68057761 67.73211411 -26 67 C-26.66 69.97 -27.32 72.94 -28 76 C-28.66 76 -29.32 76 -30 76 C-30 76.66 -30 77.32 -30 78 C-30.928125 78.4021875 -30.928125 78.4021875 -31.875 78.8125 C-34.2995233 79.95556848 -34.2995233 79.95556848 -36 83 C-36.66 83 -37.32 83 -38 83 C-38.6875 80.75 -38.6875 80.75 -39 78 C-37.75 75.6875 -37.75 75.6875 -36 74 C-35.01 74 -34.02 74 -33 74 C-33.22816406 73.20335937 -33.45632813 72.40671875 -33.69140625 71.5859375 C-33.97886719 70.52632813 -34.26632812 69.46671875 -34.5625 68.375 C-34.85253906 67.33085937 -35.14257812 66.28671875 -35.44140625 65.2109375 C-36.6351508 58.34899333 -34.17764105 54.04190368 -30.625 48.4375 C-30.22539063 47.79103516 -29.82578125 47.14457031 -29.4140625 46.47851562 C-28.63817628 45.22408116 -27.85870161 43.97185719 -27.07519531 42.72216797 C-25.68721146 40.49899856 -24.3401223 38.25227005 -23 36 C-24.1204429 37.1204429 -25.24054078 38.24123199 -26.359375 39.36328125 C-27.59393394 40.59490076 -28.83456089 41.82044238 -30.078125 43.04296875 C-30.79484375 43.75066406 -31.5115625 44.45835937 -32.25 45.1875 C-32.93578125 45.86167969 -33.6215625 46.53585938 -34.328125 47.23046875 C-36.07449111 48.90798995 -36.07449111 48.90798995 -37 51 C-37.66 51 -38.32 51 -39 51 C-40.05284217 55.52722134 -39.83458394 57.79124861 -38 62 C-37.875 64.8125 -37.875 64.8125 -38 67 C-41.15984356 65.62316185 -43.03504518 64.06553383 -45.3125 61.5 C-51.23166051 55.49379301 -58.75149555 55.53828006 -66.79296875 54.5625 C-69.63232631 54.06448844 -71.54878613 53.45977997 -74 52 C-72.64126915 47.92380746 -69.91926526 46.70638433 -66.44921875 44.50390625 C-65.07274103 43.60925633 -63.69695007 42.71354907 -62.32177734 41.81689453 C-61.25053619 41.12216034 -61.25053619 41.12216034 -60.15765381 40.41339111 C-56.70097136 38.14905926 -53.29913637 35.80642939 -49.89453125 33.46484375 C-48.54905753 32.54458637 -47.20335419 31.62466464 -45.85742188 30.70507812 C-43.81038555 29.30572816 -41.76469003 27.90457864 -39.72241211 26.49829102 C-37.70010117 25.1067231 -35.6728423 23.72264602 -33.64453125 22.33984375 C-33.03414505 21.91702621 -32.42375885 21.49420868 -31.7948761 21.05857849 C-28.93248485 19.11628747 -26.46532148 17.50023205 -23 17 C-23 16.34 -23 15.68 -23 15 C-21.21166992 13.61132812 -21.21166992 13.61132812 -18.73046875 12.03125 C-17.84166016 11.46019531 -16.95285156 10.88914062 -16.03710938 10.30078125 C-14.62655273 9.40939453 -14.62655273 9.40939453 -13.1875 8.5 C-12.25873047 7.90574219 -11.32996094 7.31148438 -10.37304688 6.69921875 C-8.64294418 5.59245269 -6.91094306 4.48864512 -5.17651367 3.38867188 C-3.43790303 2.27939343 -1.71597451 1.14398301 0 0 Z " fill="#02C792" transform="translate(650,108)"/>
<path d="M0 0 C0.66 0.66 1.32 1.32 2 2 C1.98702647 4.41536662 1.85250206 6.68342634 1.609375 9.078125 C1.5453801 9.79304611 1.48138519 10.50796722 1.41545105 11.24455261 C1.20388716 13.5807735 0.97716195 15.91524858 0.75 18.25 C0.60135881 19.85285943 0.4536565 21.4558062 0.30688477 23.05883789 C0.01405807 26.24238193 -0.28440189 29.42531891 -0.58740234 32.60791016 C-0.94052869 36.33455214 -1.26855339 40.06275417 -1.58203125 43.79296875 C-2.35556036 52.94258232 -3.21163163 61.98205736 -5 71 C-8.42530237 72.14176746 -9.31673674 71.83108216 -12.66796875 70.78515625 C-13.56064453 70.51123047 -14.45332031 70.23730469 -15.37304688 69.95507812 C-16.30181641 69.66052734 -17.23058594 69.36597656 -18.1875 69.0625 C-19.59805664 68.62647461 -19.59805664 68.62647461 -21.03710938 68.18164062 C-23.36049886 67.46221545 -25.68057761 66.73211411 -28 66 C-28.66 68.97 -29.32 71.94 -30 75 C-30.66 75 -31.32 75 -32 75 C-30.515 69.555 -30.515 69.555 -29 64 C-21.60980189 63.60409653 -16.1915057 64.87232954 -10 69 C-7.88719655 69.63292383 -7.88719655 69.63292383 -6 70 C-6.02707031 68.80834229 -6.05414062 67.61668457 -6.08203125 66.38891602 C-6.07818768 59.81264105 -5.35361514 53.31375189 -4.6875 46.77734375 C-4.55259299 45.42261015 -4.41807817 44.06783745 -4.28393555 42.71302795 C-3.93273089 39.17653218 -3.57626016 35.6405871 -3.21862793 32.10473633 C-2.8534596 28.48485995 -2.49336002 24.86447964 -2.1328125 21.24414062 C-1.42678868 14.16226385 -0.71519111 7.08095735 0 0 Z " fill="#005166" transform="translate(652,109)"/>
<path d="M0 0 C0.495 0.99 0.495 0.99 1 2 C-2.30359178 6.24585335 -4.71386866 9.33864444 -10 11 C-10.33 11.66 -10.66 12.32 -11 13 C-11.99 13 -12.98 13 -14 13 C-14 13.66 -14 14.32 -14 15 C-14.99 15 -15.98 15 -17 15 C-17 15.66 -17 16.32 -17 17 C-20 19 -20 19 -23.31665039 19.89404297 C-27.10675877 21.03205523 -29.67615443 22.47673221 -32.93359375 24.6953125 C-33.99384766 25.41074219 -35.05410156 26.12617188 -36.14648438 26.86328125 C-37.23251953 27.60964844 -38.31855469 28.35601562 -39.4375 29.125 C-40.56126863 29.88757465 -41.68561309 30.64930146 -42.81054688 31.41015625 C-45.5461351 33.26519033 -48.27558415 35.12861341 -51 37 C-51.66 36.67 -52.32 36.34 -53 36 C-46.78529185 31.37449997 -40.48178204 26.89859968 -34.0625 22.5625 C-33.4243335 22.12566895 -32.78616699 21.68883789 -32.12866211 21.23876953 C-29.10345561 19.21234992 -26.55850654 17.74307 -23 17 C-23 16.34 -23 15.68 -23 15 C-21.21166992 13.61132812 -21.21166992 13.61132812 -18.73046875 12.03125 C-17.84166016 11.46019531 -16.95285156 10.88914062 -16.03710938 10.30078125 C-14.62655273 9.40939453 -14.62655273 9.40939453 -13.1875 8.5 C-12.25873047 7.90574219 -11.32996094 7.31148438 -10.37304688 6.69921875 C-8.64294418 5.59245269 -6.91094306 4.48864512 -5.17651367 3.38867188 C-3.43790303 2.27939343 -1.71597451 1.14398301 0 0 Z " fill="#036E73" transform="translate(650,108)"/>
<path d="M0 0 C0.33 0.66 0.66 1.32 1 2 C0.02065076 3.67888441 -0.98343919 5.34338239 -2 7 C-5.77718732 15.34957197 -4.24613273 24.43661895 -2 33 C-2.61875 33.268125 -3.2375 33.53625 -3.875 33.8125 C-6.2995233 34.95556848 -6.2995233 34.95556848 -8 38 C-8.66 38 -9.32 38 -10 38 C-10.6875 35.75 -10.6875 35.75 -11 33 C-9.75 30.6875 -9.75 30.6875 -8 29 C-7.01 29 -6.02 29 -5 29 C-5.22816406 28.20335937 -5.45632813 27.40671875 -5.69140625 26.5859375 C-5.97886719 25.52632812 -6.26632812 24.46671875 -6.5625 23.375 C-6.85253906 22.33085937 -7.14257812 21.28671875 -7.44140625 20.2109375 C-8.51935339 14.01462595 -6.8739723 10.2484678 -3.4375 5.125 C-2.47650391 3.67480469 -2.47650391 3.67480469 -1.49609375 2.1953125 C-1.00238281 1.47085938 -0.50867188 0.74640625 0 0 Z " fill="#04616F" transform="translate(622,153)"/>
<path d="M0 0 C2.31 0.33 4.62 0.66 7 1 C7 1.66 7 2.32 7 3 C5.02 3.99 5.02 3.99 3 5 C3.144375 6.2375 3.28875 7.475 3.4375 8.75 C3.51871094 9.44609375 3.59992187 10.1421875 3.68359375 10.859375 C3.99336726 12.95512663 4.45189676 14.95497613 5 17 C-2.48291572 10.84965831 -2.48291572 10.84965831 -5 7 C-3.02 6.67 -1.04 6.34 1 6 C0.67 4.02 0.34 2.04 0 0 Z " fill="#11C09C" transform="translate(606,156)"/>
<path d="M0 0 C0.66 0.33 1.32 0.66 2 1 C1.01 2.485 1.01 2.485 0 4 C0.71027344 3.98839844 1.42054688 3.97679687 2.15234375 3.96484375 C3.07144531 3.95582031 3.99054687 3.94679687 4.9375 3.9375 C5.85402344 3.92589844 6.77054688 3.91429687 7.71484375 3.90234375 C10 4 10 4 11 5 C13.31952569 5.28101946 15.63885514 5.44782625 17.96875 5.62109375 C18.6390625 5.74613281 19.309375 5.87117187 20 6 C20.33 6.66 20.66 7.32 21 8 C12.99305886 7.4017071 4.99394289 6.7529365 -3 6 C-3 4.68 -3 3.36 -3 2 C-2.01 1.34 -1.02 0.68 0 0 Z " fill="#0FBA99" transform="translate(580,155)"/>
<path d="M0 0 C0.33 0.66 0.66 1.32 1 2 C-0.3228932 4.49647566 -1.69362428 6.85888095 -3.1875 9.25 C-3.58775391 9.90613281 -3.98800781 10.56226563 -4.40039062 11.23828125 C-6.84348943 15.2216806 -9.38453204 19.1279049 -12 23 C-12.33 22.34 -12.66 21.68 -13 21 C-12.22265625 19.2734375 -12.22265625 19.2734375 -11.0625 17.375 C-10.0415625 15.704375 -10.0415625 15.704375 -9 14 C-9.66 14 -10.32 14 -11 14 C-9.61263874 10.84375314 -7.99607292 8.80136567 -5.5 6.4375 C-3.27903267 4.32475777 -1.72257583 2.58386374 0 0 Z " fill="#005265" transform="translate(636,130)"/>
<path d="M0 0 C6.20970773 -0.33266291 10.28264895 0.54970669 16 3 C16 3.33 16 3.66 16 4 C10.5610835 4.21755666 6.12919186 4.10428384 1 2 C0.34 4.97 -0.32 7.94 -1 11 C-1.66 11 -2.32 11 -3 11 C-2.01 7.37 -1.02 3.74 0 0 Z " fill="#07797A" transform="translate(623,173)"/>
<path d="M0 0 C0.53625 0.2475 1.0725 0.495 1.625 0.75 C1.4375 2.5625 1.4375 2.5625 0.625 4.75 C-1.625 6.5625 -1.625 6.5625 -4.375 7.75 C-7.1875 7.4375 -7.1875 7.4375 -9.375 6.75 C-7.96530805 2.52092415 -4.67392825 -0.49199245 0 0 Z " fill="#0C6D7B" transform="translate(386.375,407.25)"/>
<path d="M0 0 C0.33 0 0.66 0 1 0 C1.38767027 9.77790574 0.1929947 19.31756984 -1 29 C-1.33 29 -1.66 29 -2 29 C-2.05855176 25.47923768 -2.0937806 21.9586024 -2.125 18.4375 C-2.14175781 17.44685547 -2.15851562 16.45621094 -2.17578125 15.43554688 C-2.21274359 9.87271509 -1.87082551 5.25156925 0 0 Z " fill="#10BD9B" transform="translate(651,109)"/>
<path d="M0 0 C0.53625 0.226875 1.0725 0.45375 1.625 0.6875 C1.25 2.625 1.25 2.625 0.625 4.6875 C-2.08379335 6.04189668 -4.38433268 5.75251451 -7.375 5.6875 C-7.705 4.6975 -8.035 3.7075 -8.375 2.6875 C-2.95961538 -0.38942308 -2.95961538 -0.38942308 0 0 Z " fill="#0C6E7C" transform="translate(299.375,451.3125)"/>
<path d="M0 0 C-1 3 -1 3 -4 5 C-6.6875 5.125 -6.6875 5.125 -9 5 C-9 3.68 -9 2.36 -9 1 C-5.64919071 -1.10976881 -3.77897651 -1.0497157 0 0 Z " fill="#0C6F7D" transform="translate(316,446)"/>
<path d="M0 0 C-0.33724836 3.11954738 -0.6209965 4.6209965 -2.875 6.875 C-3.57625 7.24625 -4.2775 7.6175 -5 8 C-5.99 7.67 -6.98 7.34 -8 7 C-7.62005832 4.24542282 -7.1926367 3.17979426 -5.125 1.25 C-3 0 -3 0 0 0 Z " fill="#0C6C7B" transform="translate(493,330)"/>
<path d="M0 0 C0.66 0.33 1.32 0.66 2 1 C1.45912682 4.78611227 -0.11722332 6.55400767 -3 9 C-3.66 9 -4.32 9 -5 9 C-5.75 7.25 -5.75 7.25 -6 5 C-4.14944202 2.76656796 -2.59616917 1.29808458 0 0 Z " fill="#0C6C7C" transform="translate(591,219)"/>
<path d="M0 0 C-1 3 -1 3 -4 5 C-6.6875 5.125 -6.6875 5.125 -9 5 C-9.33 4.34 -9.66 3.68 -10 3 C-6.46873184 -0.69178035 -5.02635024 -1.19045137 0 0 Z " fill="#0C717C" transform="translate(287,458)"/>
<path d="M0 0 C0.556875 0.226875 1.11375 0.45375 1.6875 0.6875 C0.31766497 3.84865776 -0.3015638 4.6802092 -3.3125 6.6875 C-4.3025 6.6875 -5.2925 6.6875 -6.3125 6.6875 C-6.6425 5.3675 -6.9725 4.0475 -7.3125 2.6875 C-2.88173077 -0.38942308 -2.88173077 -0.38942308 0 0 Z " fill="#0D707D" transform="translate(342.3125,431.3125)"/>
<path d="M0 0 C2.3125 0.1875 2.3125 0.1875 4 1 C2.61122646 4.35620271 1.08322035 6.07298728 -2 8 C-2.66 8 -3.32 8 -4 8 C-4.33 7.01 -4.66 6.02 -5 5 C-2.75 2.4375 -2.75 2.4375 0 0 Z " fill="#0D6E7C" transform="translate(394,401)"/>
<path d="M0 0 C-0.49831724 3.68754757 -1.10067643 5.60490662 -4 8 C-5.32 7.34 -6.64 6.68 -8 6 C-7.67 5.01 -7.34 4.02 -7 3 C-6.34 3 -5.68 3 -5 3 C-5 2.34 -5 1.68 -5 1 C-3 0 -3 0 0 0 Z " fill="#0D6D7D" transform="translate(504,320)"/>
<path d="M0 0 C0.598125 0.226875 1.19625 0.45375 1.8125 0.6875 C0.56273244 4.34066671 0.14151247 5.46815836 -3.1875 7.6875 C-4.1775 7.6875 -5.1675 7.6875 -6.1875 7.6875 C-5.82037028 4.97074005 -5.46005401 3.07686287 -3.875 0.8125 C-2.1875 -0.3125 -2.1875 -0.3125 0 0 Z " fill="#0D6D7B" transform="translate(524.1875,299.3125)"/>
<path d="M0 0 C-0.25 1.875 -0.25 1.875 -1 4 C-2.8125 5.3125 -2.8125 5.3125 -5 6 C-7.25 5.625 -7.25 5.625 -9 5 C-8.625 3.0625 -8.625 3.0625 -8 1 C-5.29120665 -0.35439668 -2.99066732 -0.06501451 0 0 Z " fill="#0D727D" transform="translate(330,439)"/>
<path d="M0 0 C1.32 0.33 2.64 0.66 4 1 C2.52307692 6.66153846 2.52307692 6.66153846 -0.125 8.375 C-0.74375 8.58125 -1.3625 8.7875 -2 9 C-2.6875 6.75 -2.6875 6.75 -3 4 C-1.5625 1.6875 -1.5625 1.6875 0 0 Z " fill="#0D6F7C" transform="translate(580,231)"/>
<path d="M0 0 C0.66 0 1.32 0 2 0 C2 0.66 2 1.32 2 2 C2.66 2.33 3.32 2.66 4 3 C2.02 5.97 2.02 5.97 0 9 C-1.32 8.67 -2.64 8.34 -4 8 C-2.87548273 5.0280615 -1.77706209 2.66559313 0 0 Z " fill="#0C6F7D" transform="translate(606,194)"/>
<path d="M0 0 C0 1.32 0 2.64 0 4 C-2.25 5.8125 -2.25 5.8125 -5 7 C-7.3125 6.6875 -7.3125 6.6875 -9 6 C-9 5.34 -9 4.68 -9 4 C-8.34 4 -7.68 4 -7 4 C-6.67 3.01 -6.34 2.02 -6 1 C-3 0 -3 0 0 0 Z " fill="#0E737F" transform="translate(358,424)"/>
<path d="M0 0 C0.33 0.99 0.66 1.98 1 3 C-3.5 7 -3.5 7 -8 7 C-6.4365884 2.43002763 -5.27390657 0 0 0 Z " fill="#0D6F7D" transform="translate(410,393)"/>
<path d="M0 0 C0.99 0.33 1.98 0.66 3 1 C1.53781513 5.6302521 1.53781513 5.6302521 -1 7.375 C-3 8 -3 8 -5 7 C-4.6189482 4.23737447 -4.16402868 3.15856106 -2.125 1.1875 C-1.42375 0.795625 -0.7225 0.40375 0 0 Z " fill="#0C707D" transform="translate(444,367)"/>
<path d="M0 0 C0.99 0 1.98 0 3 0 C3.75 1.6875 3.75 1.6875 4 4 C2.0625 6.75 2.0625 6.75 0 9 C-1.32 8.34 -2.64 7.68 -4 7 C-2.68 4.69 -1.36 2.38 0 0 Z " fill="#0D6F7D" transform="translate(552,266)"/>
<path d="M0 0 C-1 3 -1 3 -3 4 C-5.3329866 4.04022391 -7.66706666 4.04320247 -10 4 C-10 3.34 -10 2.68 -10 2 C-9.34 2 -8.68 2 -8 2 C-8 1.34 -8 0.68 -8 0 C-5.13822943 -1.43088528 -3.06624227 -0.59991697 0 0 Z " fill="#0E757E" transform="translate(272,464)"/>
<path d="M0 0 C-0.3125 1.875 -0.3125 1.875 -1 4 C-4 6 -4 6 -6.6875 5.625 C-7.450625 5.41875 -8.21375 5.2125 -9 5 C-7.35234966 0.05704899 -4.76872479 -0.25776891 0 0 Z " fill="#0D757F" transform="translate(372,417)"/>
<path d="M0 0 C1.1446875 0.3403125 1.1446875 0.3403125 2.3125 0.6875 C1.2149777 3.68074263 0.63567108 4.53360901 -2.3125 5.9375 C-3.09625 6.185 -3.88 6.4325 -4.6875 6.6875 C-5.375 4.875 -5.375 4.875 -5.6875 2.6875 C-3.97309355 -0.07459928 -3.26180423 -0.37927956 0 0 Z " fill="#0C727D" transform="translate(432.6875,377.3125)"/>
<path d="M0 0 C0.99 0.33 1.98 0.66 3 1 C1.52307692 5.67692308 1.52307692 5.67692308 -1.125 7.3125 C-1.74375 7.539375 -2.3625 7.76625 -3 8 C-3.99 7.01 -4.98 6.02 -6 5 C-1.60546875 0.99609375 -1.60546875 0.99609375 0 0 Z " fill="#0E717E" transform="translate(468,349)"/>
<path d="M0 0 C-0.33 1.65 -0.66 3.3 -1 5 C-1.66 5 -2.32 5 -3 5 C-3 5.66 -3 6.32 -3 7 C-4.65 7 -6.3 7 -8 7 C-7.08529012 1.6946827 -5.46561428 0 0 0 Z " fill="#0E717E" transform="translate(482,340)"/>
<path d="M0 0 C0.99 0.33 1.98 0.66 3 1 C3 2.32 3 3.64 3 5 C0.49515403 7.41847197 -0.46013806 8 -4 8 C-4.33 7.01 -4.66 6.02 -5 5 C-3.35 3.35 -1.7 1.7 0 0 Z " fill="#0D727E" transform="translate(512,309)"/>
<path d="M0 0 C0.99 0.33 1.98 0.66 3 1 C2.44295272 4.23087421 1.66812465 6.02361137 -1 8 C-2.32 8 -3.64 8 -5 8 C-4.66275164 4.88045262 -4.3790035 3.3790035 -2.125 1.125 C-1.42375 0.75375 -0.7225 0.3825 0 0 Z " fill="#0D717E" transform="translate(533,288)"/>
<path d="M0 0 C0.66 1.32 1.32 2.64 2 4 C-0.3125 6.0625 -0.3125 6.0625 -3 8 C-3.99 7.67 -4.98 7.34 -6 7 C-4.52307692 2.32307692 -4.52307692 2.32307692 -1.875 0.6875 C-1.25625 0.460625 -0.6375 0.23375 0 0 Z " fill="#0D727D" transform="translate(573,243)"/>
<path d="M0 0 C0.33 0.99 0.66 1.98 1 3 C-3.625 7 -3.625 7 -7 7 C-6.6875 4.625 -6.6875 4.625 -6 2 C-3 0 -3 0 0 0 Z " fill="#0D737E" transform="translate(458,359)"/>
<path d="M0 0 C0.99 0.33 1.98 0.66 3 1 C2.43628586 4.26954202 1.50037734 5.82575883 -1 8 C-1.99 7.67 -2.98 7.34 -4 7 C-3.43628586 3.73045798 -2.50037734 2.17424117 0 0 Z " fill="#0E7580" transform="translate(543,277)"/>
<path d="M0 0 C1.32 0.66 2.64 1.32 4 2 C2.35 3.65 0.7 5.3 -1 7 C-2.32 6.34 -3.64 5.68 -5 5 C-3.35 3.35 -1.7 1.7 0 0 Z " fill="#0F7680" transform="translate(419,385)"/>
<path d="M0 0 C1.32 0.33 2.64 0.66 4 1 C2.70700306 3.88437779 1.34058637 5.87219421 -1 8 C-1.99 7.01 -2.98 6.02 -4 5 C-2.68 3.35 -1.36 1.7 0 0 Z " fill="#0E7680" transform="translate(562,255)"/>
<path d="M0 0 C1.32 0 2.64 0 4 0 C3.25 4.75 3.25 4.75 1 7 C0.01 7 -0.98 7 -2 7 C-2.33 6.01 -2.66 5.02 -3 4 C-1.8125 1.8125 -1.8125 1.8125 0 0 Z " fill="#0E7680" transform="translate(597,208)"/>
<path d="M0 0 C1 2 1 2 0.375 5.3125 C-1.31315099 9.83981402 -3.62649968 12.81324984 -8 15 C-6.62712658 11.30123909 -4.93644547 8.0485524 -2.875 4.6875 C-2.33617187 3.80449219 -1.79734375 2.92148438 -1.2421875 2.01171875 C-0.83226562 1.34785156 -0.42234375 0.68398437 0 0 Z " fill="#0EBF99" transform="translate(630,142)"/>
<path d="M0 0 C0.66 0.33 1.32 0.66 2 1 C-1.71429658 5.17858365 -5.64185802 8.17846829 -11 10 C-11.66 9.67 -12.32 9.34 -13 9 C-11.20966193 7.68568828 -9.41768797 6.3736047 -7.625 5.0625 C-6.62726562 4.33160156 -5.62953125 3.60070312 -4.6015625 2.84765625 C-2 1 -2 1 0 0 Z " fill="#056972" transform="translate(595,145)"/>
<path d="M0 0 C0.66 0.33 1.32 0.66 2 1 C0.9200311 4.13190982 -0.00950474 5.00599212 -2.875 6.8125 C-6 8 -6 8 -10 7 C-6.7 4.69 -3.4 2.38 0 0 Z " fill="#0EC29A" transform="translate(618,131)"/>
<path d="M0 0 C0.99 0 1.98 0 3 0 C1.59928507 5.29158974 -1.85487245 7.77478044 -6 11 C-5.69320312 10.39671875 -5.38640625 9.7934375 -5.0703125 9.171875 C-3.91387937 6.82524427 -2.947866 4.4373697 -2 2 C-1.34 2 -0.68 2 0 2 C0 1.34 0 0.68 0 0 Z " fill="#0AC398" transform="translate(634,128)"/>
<path d="M0 0 C0.33 0.66 0.66 1.32 1 2 C-3.93654267 8.70459519 -3.93654267 8.70459519 -8.375 9.9375 C-9.24125 9.958125 -10.1075 9.97875 -11 10 C-8.90176742 7.74634278 -7.03245764 6.01932002 -4.375 4.4375 C-1.74256396 3.07382261 -1.74256396 3.07382261 0 0 Z " fill="#0DAB92" transform="translate(650,108)"/>
<path d="M0 0 C0.66 0.33 1.32 0.66 2 1 C1.01 2.485 1.01 2.485 0 4 C1.65 4.33 3.3 4.66 5 5 C1.67465243 6.10844919 -0.62182575 5.84454356 -4 5 C-3 2 -3 2 0 0 Z " fill="#0D8484" transform="translate(580,155)"/>
<path d="M0 0 C2.31 0.33 4.62 0.66 7 1 C7 1.66 7 2.32 7 3 C6.071875 3.4021875 6.071875 3.4021875 5.125 3.8125 C2.7004767 4.95556848 2.7004767 4.95556848 1 8 C0.67 5.36 0.34 2.72 0 0 Z " fill="#08AC8D" transform="translate(606,156)"/>
<path d="M0 0 C0.33 0.66 0.66 1.32 1 2 C0.00390625 3.9453125 0.00390625 3.9453125 -1.4375 6.125 C-1.91058594 6.84945312 -2.38367188 7.57390625 -2.87109375 8.3203125 C-3.24363281 8.87460938 -3.61617187 9.42890625 -4 10 C-4.99 9.34 -5.98 8.68 -7 8 C-4.69 5.36 -2.38 2.72 0 0 Z " fill="#006563" transform="translate(636,130)"/>
<path d="M0 0 C0.33 0.99 0.66 1.98 1 3 C-0.32 4.32 -1.64 5.64 -3 7 C-3.33 5.68 -3.66 4.36 -4 3 C-2.68 2.01 -1.36 1.02 0 0 Z " fill="#1A9995" transform="translate(615,183)"/>
<path d="M0 0 C0.66 0.33 1.32 0.66 2 1 C-0.57404971 4.86107457 -2.61020259 4.94319692 -7 6 C-4.74259377 3.66475218 -2.7194239 1.81294927 0 0 Z " fill="#11BC9B" transform="translate(606,139)"/>
<path d="" fill="#003964" transform="translate(0,0)"/>
</svg>
